static_00
version=1
nRows=27
nColumns=46
inDegrees=yes
endheader
time	ground_force3_vx	ground_force3_vy	ground_force3_vz	ground_force3_px	ground_force3_py	ground_force3_pz	ground_torque3_x	ground_torque3_y	ground_torque3_z	ground_force5_vx	ground_force5_vy	ground_force5_vz	ground_force5_px	ground_force5_py	ground_force5_pz	ground_torque5_x	ground_torque5_y	ground_torque5_z	ground_force4_vx	ground_force4_vy	ground_force4_vz	ground_force4_px	ground_force4_py	ground_force4_pz	ground_torque4_x	ground_torque4_y	ground_torque4_z	ground_force1_vx	ground_force1_vy	ground_force1_vz	ground_force1_px	ground_force1_py	ground_force1_pz	ground_torque1_x	ground_torque1_y	ground_torque1_z	ground_force2_vx	ground_force2_vy	ground_force2_vz	ground_force2_px	ground_force2_py	ground_force2_pz	ground_torque2_x	ground_torque2_y	ground_torque2_z
1.106000	0.282286	26.542311	-2.907156	0.223853	0.000000	-0.270330	0.000001	0.126442	-0.000000	0.151664	36.476772	-2.400379	0.213462	0.000000	-1.416606	0.000003	0.510828	0.000000	-2.741400	582.649475	-2.086567	0.214102	0.000000	-0.868602	0.000033	-0.550018	0.000005	3.051813	13.713388	0.246955	0.207627	0.000000	0.854603	-0.000000	0.932244	0.000000	-2.130167	15.688438	2.655618	0.162782	0.000000	0.232169	-0.000000	1.202541	0.000000	
1.107000	0.121413	25.592594	-3.391222	0.216795	0.000000	-0.272355	0.000000	0.121790	0.000000	0.794987	37.751328	-2.400040	0.213968	0.000000	-1.422832	0.000004	0.663486	0.000000	-2.416227	582.007324	-2.251179	0.214292	0.000000	-0.869419	0.000030	-0.605387	0.000002	3.214999	14.027027	0.727709	0.210509	0.000000	0.844625	-0.000001	0.690080	0.000000	-1.808758	15.367990	2.494235	0.145589	0.000000	0.235177	-0.000000	1.186213	0.000000	
1.108000	0.443159	25.276676	-2.745347	0.219137	0.000000	-0.268463	0.000001	0.141148	0.000000	0.312367	38.387451	-1.918776	0.212849	0.000000	-1.410412	0.000003	0.492854	0.000000	-1.606381	582.651123	-2.089626	0.213803	0.000000	-0.869436	0.000037	-0.531403	0.000008	2.728017	15.918194	0.568873	0.207817	0.000000	0.845528	-0.000000	0.926372	0.000000	-0.683403	14.411814	2.818019	0.164736	0.000000	0.224463	-0.000000	1.106347	0.000000	
1.109000	-0.039460	25.906883	-2.745688	0.214833	0.000000	-0.278443	0.000000	0.043626	0.000000	0.632754	37.432110	-2.883336	0.216599	0.000000	-1.414472	0.000002	0.696550	0.000001	-2.736768	580.092712	-2.247101	0.214030	0.000000	-0.868684	0.000039	-0.334104	0.000007	3.374750	15.287403	1.695160	0.215357	0.000000	0.862059	-0.000001	0.957868	0.000000	-2.133552	15.684015	2.173504	0.153315	0.000000	0.231400	0.000000	1.483363	0.000000	
1.110000	-0.039460	24.960434	-1.939367	0.216844	0.000000	-0.268937	0.000001	0.080286	0.000000	0.150136	36.157215	-2.721109	0.218702	0.000000	-1.418178	0.000003	0.799289	0.000001	-2.411594	582.334595	-1.607004	0.213796	0.000000	-0.868437	0.000021	-0.423193	0.000009	2.890344	14.344667	0.730256	0.206702	0.000000	0.850587	-0.000001	0.915360	0.000000	-1.807912	14.733072	2.817002	0.153101	0.000000	0.240143	-0.000000	1.148013	0.000000	
1.111000	-0.039460	24.962063	-2.100495	0.216771	0.000000	-0.264448	0.000000	0.102005	0.000000	0.311348	37.432442	-2.722463	0.220348	0.000000	-1.421098	0.000002	0.629558	0.000000	-3.227618	582.651855	-1.767538	0.213655	0.000000	-0.868781	0.000001	-0.718649	0.000007	2.890344	16.234043	0.246955	0.210712	0.000000	0.864946	-0.000000	0.939643	0.000000	-1.649323	14.415485	2.333869	0.146887	0.000000	0.215614	0.000000	1.308783	0.000000	
1.112000	0.121413	24.329250	-2.261282	0.223931	0.000000	-0.263894	0.000000	0.152550	0.000000	0.955180	36.795322	-2.560913	0.219800	0.000000	-1.429624	0.000001	0.763763	0.000001	-2.091052	582.011108	-1.927051	0.214181	0.000000	-0.869182	0.000023	-0.458327	0.000012	3.052672	14.027150	0.246955	0.230442	0.000000	0.834850	-0.000000	0.801494	0.000000	-1.650169	16.317749	1.851755	0.143820	0.000000	0.219606	0.000000	1.365759	0.000000	
1.113000	-0.361205	22.750309	-2.745688	0.215971	0.000000	-0.264930	0.000000	0.227980	0.000000	0.634283	36.796329	-2.400040	0.220915	0.000000	-1.415881	0.000002	0.640027	0.000000	-1.930010	580.408203	-1.927051	0.214426	0.000000	-0.868156	-0.000003	-0.487080	0.000004	2.564830	13.713160	0.889941	0.211052	0.000000	0.838914	-0.000000	0.974869	0.000000	-1.969886	14.418880	2.653583	0.155375	0.000000	0.224682	-0.000000	1.177628	0.000000	
1.114000	0.121413	25.907532	-2.422410	0.212024	0.000000	-0.268590	-0.000000	0.210678	0.000000	0.311857	37.111889	-2.240183	0.217433	0.000000	-1.417993	0.000000	0.569186	0.000001	-2.095686	580.729492	-2.089626	0.214345	0.000000	-0.868919	0.000059	-0.708587	0.000012	2.403362	15.289128	1.051325	0.207492	0.000000	0.883728	-0.000001	1.084699	0.000000	-1.489042	14.413433	2.496270	0.145745	0.000000	0.233580	-0.000000	1.366806	0.000000	
1.115000	0.121413	24.961094	-3.067943	0.220515	0.000000	-0.285466	0.000000	0.139296	0.000000	0.473580	37.110565	-1.918776	0.213406	0.000000	-1.407249	0.000003	0.477621	0.000001	-2.092597	582.969360	-1.765497	0.214221	0.000000	-0.868908	0.000020	-0.506508	0.000008	3.214140	13.715761	0.731105	0.213835	0.000000	0.865262	-0.000001	0.973290	0.000000	-2.290449	15.371759	2.173504	0.147149	0.000000	0.257820	-0.000000	1.160968	0.000000	
1.116000	0.121413	25.594555	-3.229071	0.222826	0.000000	-0.267458	0.000000	0.171587	0.000000	-0.010058	38.387112	-2.560913	0.212707	0.000000	-1.421062	0.000002	0.613504	0.000001	-2.255184	581.366882	-2.250160	0.214314	0.000000	-0.868758	0.000034	-0.595477	0.000012	3.214140	14.973039	1.535475	0.241732	0.000000	0.841034	-0.000001	0.822392	0.000000	-2.130167	16.635178	2.976349	0.144982	0.000000	0.228515	-0.000000	1.236752	0.000000	
1.117000	0.282286	25.908836	-2.745347	0.221202	0.000000	-0.259978	-0.000000	0.111966	0.000000	-0.170253	38.068222	-3.043530	0.213542	0.000000	-1.419368	0.000007	0.454806	0.000001	-2.089508	582.973083	-2.089626	0.213943	0.000000	-0.868303	-0.000004	-0.451618	0.000002	2.728017	14.661259	0.407490	0.224470	0.000000	0.872124	-0.000001	0.974037	0.000000	-1.645938	14.731670	2.011103	0.159630	0.000000	0.228605	-0.000000	0.948417	0.000000	
1.118000	0.121413	23.376270	-2.584219	0.206679	0.000000	-0.275717	0.000000	0.075507	0.000000	0.472561	37.750660	-1.757902	0.213621	0.000000	-1.425319	0.000003	0.615280	0.000001	-1.606381	581.369568	-1.604963	0.214364	0.000000	-0.868286	0.000016	-0.480880	0.000005	2.402503	15.286917	1.051325	0.207208	0.000000	0.851939	-0.000001	1.073415	0.000000	-1.648477	15.365342	2.815984	0.160884	0.000000	0.234945	-0.000000	1.179615	0.000000	
1.119000	-0.522078	24.962385	-2.745006	0.218514	0.000000	-0.246300	0.000000	0.264830	0.000000	0.150644	38.066887	-2.560575	0.210179	0.000000	-1.425268	0.000003	0.689790	0.000001	-2.416227	581.688477	-1.928072	0.214222	0.000000	-0.868643	0.000031	-0.573242	0.000007	3.699405	14.976269	-0.075811	0.209315	0.000000	0.875428	-0.000000	0.930449	-0.000000	-1.327068	16.957247	2.172486	0.150352	0.000000	0.231280	-0.000000	1.154437	0.000000	
1.120000	-0.200332	27.172836	-1.455644	0.219228	0.000000	-0.255165	0.000000	0.080732	0.000000	0.633265	38.071213	-2.560575	0.218707	0.000000	-1.428734	0.000004	0.777536	0.000000	-1.773601	581.688110	-2.250160	0.214148	0.000000	-0.869088	0.000035	-0.741572	0.000008	3.052672	14.030417	0.409188	0.177996	0.000000	0.861374	-0.000000	0.956981	0.000000	-1.007351	15.370200	2.493217	0.153143	0.000000	0.234578	-0.000000	1.221622	0.000000	
1.121000	-0.361205	24.011700	-2.745347	0.212022	0.000000	-0.276735	0.000000	-0.061638	0.000000	0.311857	37.110893	-3.043530	0.207511	0.000000	-1.415416	0.000003	0.572979	0.000000	-2.092597	581.687134	-2.085546	0.214253	0.000000	-0.868866	0.000032	-0.424797	0.000011	3.537078	15.918813	1.052174	0.205706	0.000000	0.854696	-0.000001	0.948409	0.000000	-1.969040	15.684826	2.495253	0.163872	0.000000	0.223581	-0.000000	1.183630	0.000000	
1.122000	0.443159	27.804020	-2.583878	0.217385	0.000000	-0.266732	0.000000	0.282375	0.000000	0.312877	37.754326	-2.721449	0.220995	0.000000	-1.416820	0.000002	0.555315	0.000000	-2.739857	582.648499	-1.927051	0.214375	0.000000	-0.868800	0.000041	-0.544337	0.000002	2.891203	14.029789	1.534626	0.214698	0.000000	0.847476	-0.000001	0.804825	0.000000	-1.005659	15.685418	2.492200	0.151230	0.000000	0.240433	-0.000000	1.053136	0.000000	
1.123000	0.282286	25.590965	-2.584560	0.214166	0.000000	-0.284911	0.000000	0.153983	0.000000	0.633265	38.710991	-2.239845	0.214386	0.000000	-1.422972	0.000001	0.688410	0.000000	-2.417772	581.052063	-2.250160	0.213965	0.000000	-0.868631	0.000022	-0.634164	0.000010	3.215858	14.028038	1.212708	0.205300	0.000000	0.846232	-0.000001	0.728373	0.000000	-1.005659	16.952545	2.492200	0.163547	0.000000	0.245745	-0.000000	1.017098	0.000000	
1.124000	0.121413	26.542313	-2.583878	0.220718	0.000000	-0.278758	0.000001	0.214471	0.000000	-0.010568	37.430447	-2.722124	0.211890	0.000000	-1.414137	0.000003	0.619727	0.000001	-1.609470	583.930054	-1.928072	0.214168	0.000000	-0.868659	0.000021	-0.644339	0.000001	3.375609	14.029666	0.246106	0.195322	0.000000	0.851739	-0.000000	0.865634	0.000000	-1.165940	16.001444	2.495253	0.159052	0.000000	0.237636	-0.000000	1.133554	-0.000000	
1.125000	-0.200332	25.595860	-2.100154	0.219099	0.000000	-0.265385	0.000001	0.172243	0.000000	0.473070	39.662674	-3.042854	0.214575	0.000000	-1.414801	0.000005	0.653291	-0.000000	-2.416227	582.012451	-1.607004	0.213881	0.000000	-0.869154	0.000028	-0.615651	0.000013	2.889485	13.398026	0.567175	0.209770	0.000000	0.840401	-0.000001	0.853473	0.000000	-1.487349	16.324539	2.495253	0.161368	0.000000	0.235364	-0.000000	1.157796	0.000000	
1.126000	-0.361205	26.226385	-3.229753	0.218217	0.000000	-0.259013	0.000000	0.028363	0.000000	0.311348	37.114887	-1.918776	0.221121	0.000000	-1.410920	0.000003	0.637243	0.000000	-1.770512	584.250305	-1.767538	0.214221	0.000000	-0.869184	0.000023	-0.637694	0.000006	3.212423	13.399035	1.211859	0.205498	0.000000	0.842680	-0.000000	0.937388	0.000000	-1.327068	18.231976	2.172486	0.155724	0.000000	0.264055	-0.000000	1.099271	0.000000	
1.127000	0.604032	26.541002	-2.422750	0.221317	0.000000	-0.260379	0.000001	0.311127	0.000000	0.151664	38.387112	-2.400040	0.210979	0.000000	-1.420823	0.000006	0.542794	0.000000	-1.606381	581.690125	-2.410696	0.213895	0.000000	-0.869516	0.000016	-0.488091	0.000005	2.565689	15.921902	1.210161	0.207706	0.000000	0.885654	-0.000001	0.953313	0.000000	-1.648477	15.369016	2.656636	0.146808	0.000000	0.227533	-0.000000	1.280849	0.000000	
1.128000	-0.039460	25.277985	-2.423432	0.224348	0.000000	-0.267945	0.000001	0.087168	0.000000	0.473070	37.430115	-1.918438	0.212309	0.000000	-1.406337	0.000004	0.578848	0.000000	-1.606381	579.456970	-2.250160	0.213593	0.000000	-0.868225	-0.000005	-0.512342	0.000007	2.727158	13.396626	0.569722	0.214876	0.000000	0.849703	-0.000001	1.037183	0.000000	-1.969040	13.463140	1.849719	0.150603	0.000000	0.210340	-0.000000	1.133459	0.000000	
1.129000	-0.039460	23.383127	-2.906816	0.219589	0.000000	-0.266258	0.000000	0.143044	0.000000	0.474090	37.751003	-2.722463	0.219250	0.000000	-1.416766	0.000005	0.416070	0.000001	-2.094142	580.409851	-2.085546	0.214014	0.000000	-0.869004	0.000024	-0.489780	0.000006	3.376468	14.659897	1.051325	0.216090	0.000000	0.865768	-0.000000	0.849687	0.000000	-1.648477	14.412405	2.815984	0.144321	0.000000	0.243238	-0.000000	1.212585	0.000000	
1.130000	-0.843824	24.963043	-3.067602	0.221324	0.000000	-0.261493	0.000000	0.274923	0.000001	0.312367	36.472107	-2.721449	0.211818	0.000000	-1.423884	0.000004	0.592475	0.000000	-1.443793	583.603455	-1.444429	0.214541	0.000000	-0.869547	-0.000005	-0.462699	0.000009	2.728017	15.601040	1.053023	0.215149	0.000000	0.849534	-0.000001	0.983894	0.000000	-1.807912	15.680620	1.850737	0.145431	0.000000	0.223137	0.000000	1.108661	0.000000	
1.131000	-0.039460	25.590630	-3.067943	0.210268	0.000000	-0.262284	0.000000	0.008083	0.000000	1.116903	39.026554	-2.560913	0.215885	0.000000	-1.425660	0.000005	0.672920	0.000000	-1.930010	581.045654	-1.603943	0.214421	0.000000	-0.869004	0.000028	-0.451338	0.000007	1.918097	13.711530	0.568024	0.219082	0.000000	0.828893	-0.000001	0.942568	0.000000	-0.845377	15.052772	2.334887	0.150675	0.000000	0.228280	-0.000000	1.211408	0.000000	
1.132000	0.282286	25.907532	-2.745347	0.212343	0.000000	-0.269175	0.000000	0.213747	0.000000	0.634283	38.070881	-2.561251	0.214605	0.000000	-1.422069	0.000003	0.565439	0.000000	-1.931555	582.331909	-1.283895	0.214112	0.000000	-0.868624	-0.000005	-0.599039	0.000000	2.728017	13.082891	0.889093	0.206691	0.000000	0.844309	-0.000000	0.844386	0.000000	-1.166786	16.319586	2.494235	0.155673	0.000000	0.204828	-0.000000	1.205960	0.000000	
